# xmcd CD database file
# Copyright (C) 1996 Ti Kan
#
# Track frame offsets:
#	150
#	40425
#	73875
#	100875
#	160050
#	175425
#	183525
#	219691
#	241816
#	287866
# Disc length: 4079 seconds
#
# Revision: 1
# Processed by: cddbd v1.4PL0 Copyright (c) Steve Scherf et al.
# Submitted via: CDCOPY 4.900
#
DISCID=990fed0a
DTITLE=Sam Bush - Carolina Theatre, NC 10-4-97 [CD2 of 2)
DYEAR=1900
DGENRE=
TTITLE0=Fiddle Tune
TTITLE1=Dark as a Dungeon
TTITLE2=You'll Never Leave Harlen Alive
TTITLE3=Whattya Say?
TTITLE4=One More Love Song
TTITLE5=Celebrate
TTITLE6=Sting Ray
TTITLE7=Encore Clapping, etc
TTITLE8=Encore One Love
TTITLE9=Encore Going Back to Old Kentucky
EXTD=
EXTT0=
EXTT1=
EXTT2=
EXTT3=
EXTT4=
EXTT5=
EXTT6=
EXTT7=
EXTT8=
EXTT9=
PLAYORDER=
